<svg width="145" height="44" viewBox="0 0 145 44" fill="none" xmlns="http://www.w3.org/2000/svg">
<g clip-path="url(#clip0_4_418)">
<path fill-rule="evenodd" clip-rule="evenodd" d="M3.58891 13.2659C9.18482 16.5269 14.7807 19.7918 20.3727 23.0528L32.1544 16.1806C33.5015 15.3956 35.2552 15.8707 36.0325 17.2314C36.8097 18.5921 36.3393 20.3635 34.9922 21.1485C30.1177 23.9908 25.2432 26.833 20.3727 29.6753L3.58891 19.8844V13.2659ZM3.58891 30.1101V23.4916C9.18482 26.7525 14.7807 30.0175 20.3727 33.2824C24.2308 31.032 28.089 28.7815 31.9471 26.5311C33.2943 25.746 35.044 26.2211 35.8212 27.5818C36.5984 28.9426 36.1281 30.7139 34.7809 31.499C29.9782 34.301 25.1714 37.1029 20.3687 39.9049C14.7728 36.644 9.17685 33.379 3.58493 30.1181L3.58891 30.1101ZM20.3766 15.8465C15.2949 12.8835 10.2171 9.92047 5.13536 6.95745L16.2076 0.5C21.2894 3.46302 26.3671 6.42604 31.4489 9.38906C27.7582 11.5429 24.0674 13.6927 20.3766 15.8465ZM38.5036 26.0158C37.9894 25.118 37.276 24.4054 36.4549 23.9022L36.5426 23.8499C39.3645 22.2033 40.341 18.5237 38.7108 15.6694C37.0807 12.8191 33.4378 11.8327 30.6119 13.4793L20.3727 19.4496L2.04645 8.76102L0.5 9.65879V31.9096L20.3766 43.5L36.3354 34.1923C39.1572 32.5457 40.1337 28.8661 38.5036 26.0118V26.0158Z" fill="#FFD012"/>
<path fill-rule="evenodd" clip-rule="evenodd" d="M34.8806 17.7064L20.3886 26.1567L4.65307 16.9778V17.4085L20.3886 26.5834C25.295 23.717 30.2053 20.8506 35.1157 17.9923L35.0599 17.8916C35.044 17.8594 35.024 17.8312 35.0041 17.799C34.9842 17.7709 34.9643 17.7387 34.9443 17.7105L34.9164 17.6742L34.8766 17.6984L34.8806 17.7064ZM33.1787 16.9858L20.3886 24.4457L4.65307 15.2668V15.6975L20.3886 24.8724C24.8805 22.2476 29.3803 19.6268 33.8762 17.0059L33.7367 16.9818C33.649 16.9657 33.5573 16.9617 33.4656 16.9576C33.378 16.9576 33.2863 16.9576 33.1986 16.9737H33.1866L33.1787 16.9818V16.9858ZM35.1556 29.4659L20.3726 38.0852L4.64111 28.9063V29.3371L20.3766 38.512C25.2671 35.6536 30.1575 32.7671 35.0679 29.945L35.0759 29.9329C35.1117 29.8685 35.1396 29.8001 35.1675 29.7316C35.1954 29.6632 35.2154 29.5907 35.2353 29.5183L35.2672 29.4015L35.1635 29.4619L35.1556 29.4659ZM34.8646 27.924L20.3726 36.3743L4.64111 27.1953V27.6261L20.3766 36.801C25.283 33.9346 30.1934 31.0682 35.1038 28.2099L35.048 28.1092C35.032 28.077 35.0121 28.0488 34.9922 28.0166C34.9722 27.9884 34.9523 27.9562 34.9324 27.9281L34.9045 27.8918L34.8646 27.916V27.924ZM33.1627 27.2034L20.3726 34.6633L4.64111 25.4803V25.9111L20.3766 35.086C24.8685 32.4611 29.3683 29.8403 33.8642 27.2195L33.7247 27.1953C33.637 27.1792 33.5454 27.1752 33.4537 27.1712C33.366 27.1712 33.2743 27.1712 33.1866 27.1873H33.1747L33.1667 27.1953L33.1627 27.2034ZM20.3886 27.8717L4.65307 18.6928V19.1235L20.3886 28.2984C25.279 25.4401 30.1695 22.5536 35.0798 19.7314L35.0878 19.7194C35.1237 19.655 35.1516 19.5865 35.1795 19.5181C35.2074 19.4496 35.2273 19.3772 35.2472 19.3047L35.2791 19.188L20.3926 27.8677L20.3886 27.8717Z" fill="#FFD012"/>
</g>
<path d="M44.828 28V16.8H47.42V25.888H53.036V28H44.828ZM54.3239 28V19.392H56.8199V28H54.3239ZM55.5719 18.192C55.1132 18.192 54.7399 18.0587 54.4519 17.792C54.1639 17.5253 54.0199 17.1947 54.0199 16.8C54.0199 16.4053 54.1639 16.0747 54.4519 15.808C54.7399 15.5413 55.1132 15.408 55.5719 15.408C56.0305 15.408 56.4039 15.536 56.6919 15.792C56.9799 16.0373 57.1239 16.3573 57.1239 16.752C57.1239 17.168 56.9799 17.5147 56.6919 17.792C56.4145 18.0587 56.0412 18.192 55.5719 18.192ZM61.4724 28L57.8564 19.392H60.4324L63.4404 26.8H62.1604L65.2804 19.392H67.6804L64.0484 28H61.4724ZM68.6989 28V19.392H71.0829V21.824L70.7469 21.12C71.0029 20.512 71.4135 20.0533 71.9789 19.744C72.5442 19.424 73.2322 19.264 74.0429 19.264V21.568C73.9362 21.5573 73.8402 21.552 73.7549 21.552C73.6695 21.5413 73.5789 21.536 73.4829 21.536C72.8002 21.536 72.2455 21.7333 71.8189 22.128C71.4029 22.512 71.1949 23.1147 71.1949 23.936V28H68.6989ZM79.5605 28.128C78.6432 28.128 77.8272 27.936 77.1125 27.552C76.4085 27.168 75.8485 26.6453 75.4325 25.984C75.0272 25.312 74.8245 24.5493 74.8245 23.696C74.8245 22.832 75.0272 22.0693 75.4325 21.408C75.8485 20.736 76.4085 20.2133 77.1125 19.84C77.8272 19.456 78.6432 19.264 79.5605 19.264C80.4672 19.264 81.2778 19.456 81.9925 19.84C82.7072 20.2133 83.2672 20.7307 83.6725 21.392C84.0778 22.0533 84.2805 22.8213 84.2805 23.696C84.2805 24.5493 84.0778 25.312 83.6725 25.984C83.2672 26.6453 82.7072 27.168 81.9925 27.552C81.2778 27.936 80.4672 28.128 79.5605 28.128ZM79.5605 26.08C79.9765 26.08 80.3498 25.984 80.6805 25.792C81.0112 25.6 81.2725 25.328 81.4645 24.976C81.6565 24.6133 81.7525 24.1867 81.7525 23.696C81.7525 23.1947 81.6565 22.768 81.4645 22.416C81.2725 22.064 81.0112 21.792 80.6805 21.6C80.3498 21.408 79.9765 21.312 79.5605 21.312C79.1445 21.312 78.7712 21.408 78.4405 21.6C78.1098 21.792 77.8432 22.064 77.6405 22.416C77.4485 22.768 77.3525 23.1947 77.3525 23.696C77.3525 24.1867 77.4485 24.6133 77.6405 24.976C77.8432 25.328 78.1098 25.6 78.4405 25.792C78.7712 25.984 79.1445 26.08 79.5605 26.08ZM86.1249 28V16.8H88.2689L93.0369 24.704H91.9009L96.5889 16.8H98.7169L98.7489 28H96.3169L96.3009 20.528H96.7489L93.0049 26.816H91.8369L88.0129 20.528H88.5569V28H86.1249ZM104.862 28.128C104.147 28.128 103.507 27.9893 102.942 27.712C102.387 27.4347 101.955 27.0133 101.646 26.448C101.337 25.872 101.182 25.1413 101.182 24.256V19.392H103.678V23.888C103.678 24.6027 103.827 25.1307 104.126 25.472C104.435 25.8027 104.867 25.968 105.422 25.968C105.806 25.968 106.147 25.888 106.446 25.728C106.745 25.5573 106.979 25.3013 107.15 24.96C107.321 24.608 107.406 24.1707 107.406 23.648V19.392H109.902V28H107.534V25.632L107.966 26.32C107.678 26.9173 107.251 27.3707 106.686 27.68C106.131 27.9787 105.523 28.128 104.862 28.128ZM117.447 19.264C118.129 19.264 118.737 19.4027 119.271 19.68C119.815 19.9467 120.241 20.3627 120.551 20.928C120.86 21.4827 121.015 22.1973 121.015 23.072V28H118.519V23.456C118.519 22.7627 118.364 22.2507 118.055 21.92C117.756 21.5893 117.329 21.424 116.775 21.424C116.38 21.424 116.023 21.5093 115.703 21.68C115.393 21.84 115.148 22.0907 114.967 22.432C114.796 22.7733 114.711 23.2107 114.711 23.744V28H112.215V19.392H114.599V21.776L114.151 21.056C114.46 20.48 114.903 20.0373 115.479 19.728C116.055 19.4187 116.711 19.264 117.447 19.264ZM127.036 28.128C126.225 28.128 125.494 27.9467 124.844 27.584C124.193 27.2107 123.676 26.6933 123.292 26.032C122.918 25.3707 122.732 24.592 122.732 23.696C122.732 22.7893 122.918 22.0053 123.292 21.344C123.676 20.6827 124.193 20.1707 124.844 19.808C125.494 19.4453 126.225 19.264 127.036 19.264C127.761 19.264 128.396 19.424 128.94 19.744C129.484 20.064 129.905 20.5493 130.204 21.2C130.502 21.8507 130.652 22.6827 130.652 23.696C130.652 24.6987 130.508 25.5307 130.22 26.192C129.932 26.8427 129.516 27.328 128.972 27.648C128.438 27.968 127.793 28.128 127.036 28.128ZM127.468 26.08C127.873 26.08 128.241 25.984 128.572 25.792C128.902 25.6 129.164 25.328 129.356 24.976C129.558 24.6133 129.66 24.1867 129.66 23.696C129.66 23.1947 129.558 22.768 129.356 22.416C129.164 22.064 128.902 21.792 128.572 21.6C128.241 21.408 127.873 21.312 127.468 21.312C127.052 21.312 126.678 21.408 126.348 21.6C126.017 21.792 125.75 22.064 125.548 22.416C125.356 22.768 125.26 23.1947 125.26 23.696C125.26 24.1867 125.356 24.6133 125.548 24.976C125.75 25.328 126.017 25.6 126.348 25.792C126.678 25.984 127.052 26.08 127.468 26.08ZM129.724 28V26.24L129.772 23.68L129.612 21.136V16.128H132.108V28H129.724ZM138.514 28.128C137.596 28.128 136.78 27.936 136.066 27.552C135.362 27.168 134.802 26.6453 134.386 25.984C133.98 25.312 133.778 24.5493 133.778 23.696C133.778 22.832 133.98 22.0693 134.386 21.408C134.802 20.736 135.362 20.2133 136.066 19.84C136.78 19.456 137.596 19.264 138.514 19.264C139.42 19.264 140.231 19.456 140.946 19.84C141.66 20.2133 142.22 20.7307 142.626 21.392C143.031 22.0533 143.234 22.8213 143.234 23.696C143.234 24.5493 143.031 25.312 142.626 25.984C142.22 26.6453 141.66 27.168 140.946 27.552C140.231 27.936 139.42 28.128 138.514 28.128ZM138.514 26.08C138.93 26.08 139.303 25.984 139.634 25.792C139.964 25.6 140.226 25.328 140.418 24.976C140.61 24.6133 140.706 24.1867 140.706 23.696C140.706 23.1947 140.61 22.768 140.418 22.416C140.226 22.064 139.964 21.792 139.634 21.6C139.303 21.408 138.93 21.312 138.514 21.312C138.098 21.312 137.724 21.408 137.394 21.6C137.063 21.792 136.796 22.064 136.594 22.416C136.402 22.768 136.306 23.1947 136.306 23.696C136.306 24.1867 136.402 24.6133 136.594 24.976C136.796 25.328 137.063 25.6 137.394 25.792C137.724 25.984 138.098 26.08 138.514 26.08Z" fill="white"/>
<defs>
<clipPath id="clip0_4_418">
<rect width="39" height="43" fill="white" transform="translate(0.5 0.5)"/>
</clipPath>
</defs>
</svg>
