<svg width="64" height="40" viewBox="0 0 64 40" fill="none" xmlns="http://www.w3.org/2000/svg">
<path fill-rule="evenodd" clip-rule="evenodd" d="M32 34.8417C28.6106 37.7465 24.2141 39.5 19.4098 39.5C8.69008 39.5 0 30.7696 0 20C0 9.23045 8.69008 0.5 19.4098 0.5C24.2141 0.5 28.6106 2.25354 32 5.1583C35.3894 2.25354 39.7859 0.5 44.5902 0.5C55.3099 0.5 64 9.23045 64 20C64 30.7696 55.3099 39.5 44.5902 39.5C39.7859 39.5 35.3894 37.7465 32 34.8417Z" fill="#ED0006"/>
<path fill-rule="evenodd" clip-rule="evenodd" d="M32 34.8417C36.1734 31.265 38.8197 25.943 38.8197 20C38.8197 14.057 36.1734 8.73495 32 5.1583C35.3894 2.25354 39.7859 0.5 44.5902 0.5C55.3099 0.5 64 9.23045 64 20C64 30.7696 55.3099 39.5 44.5902 39.5C39.7859 39.5 35.3894 37.7465 32 34.8417Z" fill="#F9A000"/>
<path fill-rule="evenodd" clip-rule="evenodd" d="M32 5.15839C36.1733 8.73505 38.8196 14.0571 38.8196 20C38.8196 25.943 36.1733 31.265 32 34.8416C27.8267 31.265 25.1804 25.943 25.1804 20C25.1804 14.0571 27.8267 8.73504 32 5.15839Z" fill="#FF5E00"/>
</svg>
